<?xml version="1.0" standalone="no"?>
<!DOCTYPE svg PUBLIC "-//W3C//DTD SVG 20010904//EN"
 "http://www.w3.org/TR/2001/REC-SVG-20010904/DTD/svg10.dtd">
<svg version="1.0" xmlns="http://www.w3.org/2000/svg"
 width="512.000000pt" height="512.000000pt" viewBox="0 0 512.000000 512.000000"
 preserveAspectRatio="xMidYMid meet">
<metadata>
Created by potrace 1.11, written by Peter Selinger 2001-2013
</metadata>
<g transform="translate(0.000000,512.000000) scale(0.100000,-0.100000)"
fill="#000000" stroke="none">
<path d="M305 5107 c-98 -29 -179 -98 -221 -190 l-29 -62 0 -2295 0 -2295 29
-62 c41 -89 114 -154 210 -186 46 -16 223 -17 2280 -14 l2231 2 57 27 c79 37
140 96 174 171 l29 62 3 1926 2 1925 -20 22 c-12 12 -27 22 -34 22 -19 0 -22
21 -20 120 2 113 2 110 19 110 8 0 24 10 35 23 20 21 21 30 18 232 -3 206 -4
211 -31 271 -35 76 -94 135 -172 171 l-60 28 -2230 2 c-1663 1 -2240 -2 -2270
-10z"/>
</g>
</svg>
