<?xml version="1.0" standalone="no"?>
<!DOCTYPE svg PUBLIC "-//W3C//DTD SVG 20010904//EN"
 "http://www.w3.org/TR/2001/REC-SVG-20010904/DTD/svg10.dtd">
<svg version="1.0" xmlns="http://www.w3.org/2000/svg"
 width="512.000000pt" height="512.000000pt" viewBox="0 0 512.000000 512.000000"
 preserveAspectRatio="xMidYMid meet">
<metadata>
Created by potrace 1.11, written by Peter Selinger 2001-2013
</metadata>
<g transform="translate(0.000000,512.000000) scale(0.100000,-0.100000)"
fill="#000000" stroke="none">
<path d="M1029 4222 c-71 -38 -115 -107 -124 -195 -3 -34 -5 -721 -3 -1527 l3
-1465 31 -55 c22 -38 46 -64 79 -85 l48 -30 1502 0 1502 0 49 30 c35 22 57 46
79 85 l30 55 3 1250 c2 688 0 1265 -3 1283 -5 25 -14 37 -41 50 -35 16 -36 16
-54 -8 -19 -24 -19 -67 -22 -1295 -3 -1393 1 -1300 -63 -1327 -21 -9 -86 -13
-210 -13 -155 0 -179 2 -176 15 2 8 6 26 8 40 12 72 4 67 111 72 89 4 103 8
135 32 67 51 67 48 67 708 l0 588 28 42 c26 39 27 48 30 181 4 149 -2 219 -21
240 -30 32 -37 61 -37 149 0 84 2 95 28 132 27 39 27 39 27 216 0 176 0 177
-28 218 -25 39 -27 49 -27 145 0 128 -17 185 -67 223 -32 24 -46 28 -135 32
-107 5 -99 0 -111 72 -2 14 -6 32 -8 40 -3 13 21 15 176 15 266 0 268 -1 273
-207 4 -128 5 -138 27 -158 l24 -22 30 22 c40 28 45 49 39 190 -5 108 -8 123
-35 172 -21 36 -45 62 -78 83 l-48 30 -1492 3 -1492 2 -54 -28z m2181 -278 l0
-205 -22 7 c-13 3 -54 22 -93 42 -95 48 -129 47 -238 -6 -49 -23 -93 -40 -98
-37 -10 7 -13 388 -2 398 3 4 107 7 230 7 l223 0 0 -206z m-569 -1 c0 -217 7
-253 52 -287 42 -31 97 -26 189 18 42 20 86 36 97 36 11 0 57 -16 103 -36 93
-41 142 -47 182 -21 49 33 56 67 56 287 l0 200 76 0 c88 0 126 -17 146 -64 10
-25 13 -325 13 -1521 0 -1196 -3 -1496 -13 -1521 -29 -68 43 -64 -1110 -64
l-1041 0 -3 151 -3 151 -27 22 c-24 18 -28 29 -28 69 0 40 5 52 28 72 l27 23
3 1341 2 1341 625 0 625 0 1 -197z m1203 -59 c13 -5 16 -24 16 -100 l0 -94
-95 0 -95 0 0 100 0 100 79 0 c44 0 86 -3 95 -6z m29 -305 c39 -18 47 -50 47
-195 0 -130 -1 -136 -25 -160 -24 -23 -30 -25 -122 -22 l-98 3 -3 180 c-1 98
0 185 2 192 7 17 164 18 199 2z m-15 -536 l3 -53 -95 0 -96 0 0 48 c0 27 2 51
4 53 3 2 44 4 93 4 l88 0 3 -52z m-6 -163 c62 -18 68 -36 68 -195 -1 -186 -8
-195 -159 -195 l-91 0 0 194 0 195 43 4 c83 7 102 7 139 -3z m8 -1069 c0 -519
-2 -579 -16 -585 -9 -3 -51 -6 -95 -6 l-79 0 0 585 0 585 95 0 95 0 0 -579z"/>
<path d="M2361 3431 c-64 -24 -90 -41 -147 -93 -43 -40 -44 -40 -131 -42 -70
-2 -99 -7 -144 -28 -108 -49 -176 -130 -208 -248 -19 -68 -20 -78 -6 -141 18
-86 37 -127 87 -184 45 -51 108 -91 171 -110 l42 -12 5 -244 c3 -134 7 -245 8
-247 1 -1 17 -11 35 -22 30 -19 51 -20 395 -20 386 0 406 2 432 49 6 12 10
113 10 255 l0 236 23 0 c47 0 142 56 195 115 161 182 104 460 -116 567 -58 28
-79 33 -157 35 l-89 2 -39 41 c-91 93 -251 133 -366 91z m192 -103 c24 -7 66
-36 108 -75 l69 -63 88 0 c114 0 150 -11 210 -66 62 -55 87 -114 86 -200 -1
-104 -68 -192 -179 -233 -30 -12 -59 -21 -64 -21 -4 0 -18 -12 -32 -26 -24
-25 -24 -28 -27 -260 l-3 -234 -340 0 -339 0 0 234 0 233 -25 25 c-13 14 -44
30 -67 37 -71 22 -114 48 -151 93 -42 53 -57 95 -57 162 0 83 17 124 74 182
63 62 97 74 219 74 l88 0 58 55 c91 87 182 114 284 83z"/>
<path d="M2015 1831 c-65 -29 -106 -129 -67 -164 30 -27 63 -18 91 26 13 20
30 37 37 37 6 0 19 -16 28 -35 9 -19 25 -39 36 -45 25 -13 66 3 73 29 9 35
-10 93 -42 124 -24 25 -39 31 -83 34 -29 1 -62 -1 -73 -6z"/>
<path d="M2805 1828 c-57 -31 -95 -102 -80 -149 14 -42 89 -46 101 -5 7 23 33
56 44 56 4 0 19 -18 34 -40 61 -93 143 -8 84 87 -33 55 -128 81 -183 51z"/>
<path d="M2337 1632 c-26 -28 -20 -57 16 -89 51 -44 111 -58 167 -38 83 29
123 91 84 129 -21 22 -48 20 -95 -6 l-39 -23 -39 23 c-48 27 -73 28 -94 4z"/>
</g>
</svg>
